<svg width="751" height="469" viewBox="0 0 751 469" fill="none" xmlns="http://www.w3.org/2000/svg">
<rect width="751" height="469" fill="#F5F5F5"/>
<rect width="751" height="469" fill="#7E7B7B"/>
<circle cx="375.5" cy="48.5" r="42.5" fill="#D9D9D9"/>
<path d="M347.761 52V37.4545H349.523V43.9318H357.278V37.4545H359.04V52H357.278V45.4943H349.523V52H347.761ZM366.771 52.2273C365.786 52.2273 364.922 51.9929 364.178 51.5241C363.44 51.0554 362.862 50.3996 362.445 49.5568C362.033 48.714 361.827 47.7292 361.827 46.6023C361.827 45.4659 362.033 44.474 362.445 43.6264C362.862 42.7789 363.44 42.1207 364.178 41.652C364.922 41.1832 365.786 40.9489 366.771 40.9489C367.755 40.9489 368.617 41.1832 369.356 41.652C370.099 42.1207 370.677 42.7789 371.089 43.6264C371.505 44.474 371.714 45.4659 371.714 46.6023C371.714 47.7292 371.505 48.714 371.089 49.5568C370.677 50.3996 370.099 51.0554 369.356 51.5241C368.617 51.9929 367.755 52.2273 366.771 52.2273ZM366.771 50.7216C367.519 50.7216 368.134 50.5298 368.617 50.1463C369.1 49.7628 369.458 49.2585 369.69 48.6335C369.922 48.0085 370.038 47.3314 370.038 46.6023C370.038 45.8731 369.922 45.1937 369.69 44.5639C369.458 43.9342 369.1 43.4252 368.617 43.0369C368.134 42.6487 367.519 42.4545 366.771 42.4545C366.022 42.4545 365.407 42.6487 364.924 43.0369C364.441 43.4252 364.084 43.9342 363.852 44.5639C363.62 45.1937 363.504 45.8731 363.504 46.6023C363.504 47.3314 363.62 48.0085 363.852 48.6335C364.084 49.2585 364.441 49.7628 364.924 50.1463C365.407 50.5298 366.022 50.7216 366.771 50.7216ZM374.272 52V41.0909H375.892V42.7955H376.034C376.261 42.2131 376.628 41.7609 377.135 41.4389C377.641 41.1122 378.25 40.9489 378.96 40.9489C379.68 40.9489 380.279 41.1122 380.757 41.4389C381.24 41.7609 381.616 42.2131 381.886 42.7955H382C382.279 42.232 382.698 41.7846 383.257 41.4531C383.815 41.117 384.485 40.9489 385.267 40.9489C386.242 40.9489 387.04 41.2543 387.66 41.8651C388.28 42.4711 388.591 43.4157 388.591 44.6989V52H386.914V44.6989C386.914 43.8939 386.694 43.3187 386.254 42.973C385.814 42.6274 385.295 42.4545 384.699 42.4545C383.931 42.4545 383.337 42.6866 382.916 43.1506C382.494 43.6098 382.284 44.1922 382.284 44.8977V52H380.579V44.5284C380.579 43.9081 380.378 43.4086 379.975 43.0298C379.573 42.6463 379.055 42.4545 378.42 42.4545C377.984 42.4545 377.577 42.5705 377.199 42.8026C376.824 43.0346 376.521 43.3565 376.289 43.7685C376.062 44.1757 375.949 44.6468 375.949 45.1818V52H374.272ZM396.229 52.2273C395.178 52.2273 394.271 51.9953 393.509 51.5312C392.751 51.0625 392.167 50.4091 391.755 49.571C391.347 48.7282 391.144 47.7481 391.144 46.6307C391.144 45.5133 391.347 44.5284 391.755 43.6761C392.167 42.8191 392.739 42.1515 393.473 41.6733C394.212 41.1903 395.074 40.9489 396.059 40.9489C396.627 40.9489 397.188 41.0436 397.742 41.233C398.296 41.4223 398.8 41.7301 399.255 42.1562C399.709 42.5777 400.071 43.1364 400.341 43.8324C400.611 44.5284 400.746 45.3854 400.746 46.4034V47.1136H392.337V45.6648H399.042C399.042 45.0492 398.918 44.5 398.672 44.017C398.431 43.5341 398.085 43.1529 397.635 42.8736C397.19 42.5942 396.665 42.4545 396.059 42.4545C395.391 42.4545 394.813 42.6203 394.326 42.9517C393.843 43.2784 393.471 43.7045 393.211 44.2301C392.95 44.7557 392.82 45.3191 392.82 45.9205V46.8864C392.82 47.7102 392.962 48.4086 393.246 48.9815C393.535 49.5497 393.935 49.983 394.446 50.2812C394.958 50.5748 395.552 50.7216 396.229 50.7216C396.669 50.7216 397.067 50.66 397.422 50.5369C397.782 50.4091 398.092 50.2197 398.353 49.9688C398.613 49.7131 398.814 49.3958 398.956 49.017L400.576 49.4716C400.405 50.0208 400.119 50.5038 399.716 50.9205C399.314 51.3324 398.817 51.6544 398.225 51.8864C397.633 52.1136 396.968 52.2273 396.229 52.2273Z" fill="black"/>
<circle cx="98.5" cy="200.5" r="42.5" fill="#D9D9D9"/>
<path d="M81.858 189.545C81.8153 189.186 81.6425 188.906 81.3395 188.707C81.0365 188.509 80.6648 188.409 80.2244 188.409C79.9025 188.409 79.6207 188.461 79.3793 188.565C79.1402 188.67 78.9531 188.813 78.8182 188.995C78.6856 189.177 78.6193 189.384 78.6193 189.616C78.6193 189.811 78.6655 189.978 78.7578 190.117C78.8525 190.254 78.9732 190.369 79.12 190.462C79.2668 190.552 79.4207 190.626 79.5817 190.685C79.7427 190.742 79.8906 190.788 80.0256 190.824L80.7642 191.023C80.9536 191.072 81.1643 191.141 81.3963 191.229C81.6307 191.316 81.8544 191.436 82.0675 191.587C82.2829 191.737 82.4605 191.928 82.6001 192.163C82.7398 192.397 82.8097 192.685 82.8097 193.026C82.8097 193.419 82.7067 193.774 82.5007 194.091C82.2971 194.408 81.9988 194.66 81.6058 194.847C81.2152 195.034 80.7405 195.128 80.1818 195.128C79.661 195.128 79.21 195.044 78.8288 194.876C78.45 194.708 78.1518 194.473 77.9339 194.173C77.7185 193.872 77.5966 193.523 77.5682 193.125H78.4773C78.5009 193.4 78.5933 193.627 78.7543 193.807C78.9176 193.984 79.1236 194.117 79.3722 194.205C79.6231 194.29 79.893 194.332 80.1818 194.332C80.518 194.332 80.8198 194.278 81.0874 194.169C81.3549 194.058 81.5668 193.904 81.723 193.707C81.8793 193.509 81.9574 193.277 81.9574 193.011C81.9574 192.77 81.8899 192.573 81.755 192.422C81.62 192.27 81.4425 192.147 81.2223 192.053C81.0021 191.958 80.7642 191.875 80.5085 191.804L79.6136 191.548C79.0455 191.385 78.5956 191.152 78.2642 190.849C77.9328 190.546 77.767 190.149 77.767 189.659C77.767 189.252 77.8771 188.897 78.0973 188.594C78.3198 188.288 78.6181 188.052 78.9922 187.884C79.3686 187.713 79.7888 187.628 80.2528 187.628C80.7216 187.628 81.1383 187.712 81.5028 187.88C81.8674 188.046 82.1563 188.273 82.3693 188.562C82.5848 188.851 82.6984 189.179 82.7102 189.545H81.858ZM86.3599 195.114C85.8675 195.114 85.4354 194.996 85.0637 194.762C84.6944 194.528 84.4056 194.2 84.1973 193.778C83.9913 193.357 83.8883 192.865 83.8883 192.301C83.8883 191.733 83.9913 191.237 84.1973 190.813C84.4056 190.389 84.6944 190.06 85.0637 189.826C85.4354 189.592 85.8675 189.474 86.3599 189.474C86.8523 189.474 87.2832 189.592 87.6525 189.826C88.0242 190.06 88.313 190.389 88.519 190.813C88.7273 191.237 88.8315 191.733 88.8315 192.301C88.8315 192.865 88.7273 193.357 88.519 193.778C88.313 194.2 88.0242 194.528 87.6525 194.762C87.2832 194.996 86.8523 195.114 86.3599 195.114ZM86.3599 194.361C86.734 194.361 87.0417 194.265 87.2832 194.073C87.5247 193.881 87.7034 193.629 87.8194 193.317C87.9354 193.004 87.9934 192.666 87.9934 192.301C87.9934 191.937 87.9354 191.597 87.8194 191.282C87.7034 190.967 87.5247 190.713 87.2832 190.518C87.0417 190.324 86.734 190.227 86.3599 190.227C85.9859 190.227 85.6781 190.324 85.4366 190.518C85.1951 190.713 85.0164 190.967 84.9004 191.282C84.7844 191.597 84.7264 191.937 84.7264 192.301C84.7264 192.666 84.7844 193.004 84.9004 193.317C85.0164 193.629 85.1951 193.881 85.4366 194.073C85.6781 194.265 85.9859 194.361 86.3599 194.361ZM92.5398 189.545V190.256H89.5994V189.545H92.5398ZM90.4801 195V188.793C90.4801 188.48 90.5535 188.22 90.7003 188.011C90.8471 187.803 91.0376 187.647 91.272 187.543C91.5064 187.438 91.7538 187.386 92.0142 187.386C92.2202 187.386 92.3883 187.403 92.5185 187.436C92.6487 187.469 92.7457 187.5 92.8097 187.528L92.5682 188.253C92.5256 188.239 92.4664 188.221 92.3906 188.2C92.3172 188.178 92.2202 188.168 92.0994 188.168C91.8224 188.168 91.6224 188.237 91.4993 188.377C91.3786 188.517 91.3182 188.722 91.3182 188.991V195H90.4801ZM96.0865 189.545V190.256H93.2598V189.545H96.0865ZM94.0836 188.239H94.9217V193.438C94.9217 193.674 94.956 193.852 95.0247 193.97C95.0957 194.086 95.1857 194.164 95.2946 194.205C95.4058 194.242 95.523 194.261 95.6461 194.261C95.7385 194.261 95.8142 194.257 95.8734 194.247C95.9326 194.235 95.9799 194.226 96.0154 194.219L96.1859 194.972C96.1291 194.993 96.0498 195.014 95.948 195.036C95.8462 195.059 95.7172 195.071 95.5609 195.071C95.3242 195.071 95.0922 195.02 94.8649 194.918C94.64 194.817 94.4529 194.661 94.3038 194.453C94.157 194.245 94.0836 193.982 94.0836 193.665V188.239ZM98.5829 195L96.921 189.545H97.8017L98.9806 193.722H99.0375L100.202 189.545H101.097L102.248 193.707H102.305L103.483 189.545H104.364L102.702 195H101.878L100.685 190.81H100.6L99.4068 195H98.5829ZM107.077 195.128C106.732 195.128 106.418 195.063 106.136 194.933C105.854 194.8 105.631 194.609 105.465 194.361C105.299 194.11 105.216 193.807 105.216 193.452C105.216 193.139 105.278 192.886 105.401 192.692C105.524 192.495 105.689 192.341 105.895 192.23C106.101 192.119 106.328 192.036 106.577 191.982C106.827 191.925 107.08 191.88 107.333 191.847C107.664 191.804 107.933 191.772 108.139 191.751C108.347 191.727 108.499 191.688 108.594 191.634C108.691 191.579 108.739 191.484 108.739 191.349V191.321C108.739 190.971 108.643 190.698 108.452 190.504C108.262 190.31 107.974 190.213 107.589 190.213C107.189 190.213 106.875 190.301 106.648 190.476C106.42 190.651 106.26 190.838 106.168 191.037L105.373 190.753C105.515 190.421 105.704 190.163 105.941 189.979C106.18 189.792 106.44 189.661 106.722 189.588C107.006 189.512 107.286 189.474 107.56 189.474C107.735 189.474 107.937 189.496 108.164 189.538C108.394 189.579 108.615 189.663 108.828 189.79C109.043 189.918 109.222 190.111 109.364 190.369C109.506 190.627 109.577 190.973 109.577 191.406V195H108.739V194.261H108.697C108.64 194.38 108.545 194.506 108.412 194.641C108.28 194.776 108.104 194.891 107.883 194.986C107.663 195.08 107.394 195.128 107.077 195.128ZM107.205 194.375C107.537 194.375 107.816 194.31 108.043 194.18C108.273 194.049 108.446 193.881 108.562 193.675C108.68 193.469 108.739 193.253 108.739 193.026V192.259C108.704 192.301 108.626 192.34 108.505 192.376C108.386 192.409 108.249 192.438 108.093 192.464C107.939 192.488 107.789 192.509 107.642 192.528C107.497 192.545 107.38 192.559 107.29 192.571C107.073 192.599 106.869 192.646 106.68 192.71C106.492 192.771 106.341 192.865 106.225 192.99C106.111 193.113 106.055 193.281 106.055 193.494C106.055 193.786 106.162 194.006 106.378 194.155C106.595 194.302 106.871 194.375 107.205 194.375ZM111.107 195V189.545H111.917V190.369H111.973C112.073 190.099 112.253 189.88 112.513 189.712C112.774 189.544 113.067 189.46 113.394 189.46C113.455 189.46 113.532 189.461 113.625 189.464C113.717 189.466 113.787 189.47 113.834 189.474V190.327C113.806 190.32 113.741 190.309 113.639 190.295C113.539 190.278 113.434 190.27 113.323 190.27C113.058 190.27 112.821 190.326 112.613 190.437C112.407 190.546 112.243 190.697 112.123 190.891C112.004 191.083 111.945 191.302 111.945 191.548V195H111.107ZM116.949 195.114C116.423 195.114 115.97 194.998 115.588 194.766C115.21 194.531 114.917 194.205 114.711 193.786C114.508 193.364 114.406 192.874 114.406 192.315C114.406 191.757 114.508 191.264 114.711 190.838C114.917 190.41 115.204 190.076 115.571 189.837C115.94 189.595 116.371 189.474 116.863 189.474C117.147 189.474 117.428 189.522 117.705 189.616C117.982 189.711 118.234 189.865 118.461 190.078C118.689 190.289 118.87 190.568 119.005 190.916C119.14 191.264 119.207 191.693 119.207 192.202V192.557H115.002V191.832H118.355C118.355 191.525 118.293 191.25 118.17 191.009C118.049 190.767 117.877 190.576 117.652 190.437C117.429 190.297 117.166 190.227 116.863 190.227C116.529 190.227 116.241 190.31 115.997 190.476C115.755 190.639 115.569 190.852 115.439 191.115C115.309 191.378 115.244 191.66 115.244 191.96V192.443C115.244 192.855 115.315 193.204 115.457 193.491C115.601 193.775 115.801 193.991 116.057 194.141C116.313 194.287 116.61 194.361 116.949 194.361C117.169 194.361 117.368 194.33 117.545 194.268C117.725 194.205 117.88 194.11 118.01 193.984C118.141 193.857 118.241 193.698 118.312 193.509L119.122 193.736C119.037 194.01 118.893 194.252 118.692 194.46C118.491 194.666 118.242 194.827 117.946 194.943C117.65 195.057 117.318 195.114 116.949 195.114ZM77.8807 207V199.727H80.3381C80.9086 199.727 81.375 199.83 81.7372 200.036C82.1018 200.24 82.3717 200.516 82.5469 200.864C82.7221 201.212 82.8097 201.6 82.8097 202.028C82.8097 202.457 82.7221 202.846 82.5469 203.197C82.3741 203.547 82.1065 203.826 81.7443 204.035C81.3821 204.241 80.9181 204.344 80.3523 204.344H78.5909V203.562H80.3239C80.7145 203.562 81.0282 203.495 81.2649 203.36C81.5017 203.225 81.6733 203.043 81.7798 202.813C81.8887 202.581 81.9432 202.32 81.9432 202.028C81.9432 201.737 81.8887 201.477 81.7798 201.247C81.6733 201.018 81.5005 200.838 81.2614 200.707C81.0223 200.575 80.705 200.509 80.3097 200.509H78.7614V207H77.8807ZM84.1147 207V201.545H84.9244V202.369H84.9812C85.0806 202.099 85.2605 201.88 85.521 201.712C85.7814 201.544 86.0749 201.46 86.4016 201.46C86.4632 201.46 86.5401 201.461 86.6325 201.464C86.7248 201.466 86.7946 201.47 86.842 201.474V202.327C86.8136 202.32 86.7485 202.309 86.6467 202.295C86.5472 202.278 86.4419 202.27 86.3306 202.27C86.0655 202.27 85.8287 202.326 85.6204 202.437C85.4144 202.546 85.2511 202.697 85.1303 202.891C85.012 203.083 84.9528 203.302 84.9528 203.548V207H84.1147ZM89.8853 207.114C89.3929 207.114 88.9608 206.996 88.5891 206.762C88.2198 206.528 87.931 206.2 87.7227 205.778C87.5167 205.357 87.4137 204.865 87.4137 204.301C87.4137 203.733 87.5167 203.237 87.7227 202.813C87.931 202.389 88.2198 202.06 88.5891 201.826C88.9608 201.592 89.3929 201.474 89.8853 201.474C90.3777 201.474 90.8086 201.592 91.1779 201.826C91.5496 202.06 91.8384 202.389 92.0444 202.813C92.2527 203.237 92.3569 203.733 92.3569 204.301C92.3569 204.865 92.2527 205.357 92.0444 205.778C91.8384 206.2 91.5496 206.528 91.1779 206.762C90.8086 206.996 90.3777 207.114 89.8853 207.114ZM89.8853 206.361C90.2594 206.361 90.5671 206.265 90.8086 206.073C91.0501 205.881 91.2288 205.629 91.3448 205.317C91.4608 205.004 91.5188 204.666 91.5188 204.301C91.5188 203.937 91.4608 203.597 91.3448 203.282C91.2288 202.967 91.0501 202.713 90.8086 202.518C90.5671 202.324 90.2594 202.227 89.8853 202.227C89.5112 202.227 89.2035 202.324 88.962 202.518C88.7205 202.713 88.5418 202.967 88.4258 203.282C88.3098 203.597 88.2518 203.937 88.2518 204.301C88.2518 204.666 88.3098 205.004 88.4258 205.317C88.5418 205.629 88.7205 205.881 88.962 206.073C89.2035 206.265 89.5112 206.361 89.8853 206.361ZM95.6958 207.114C95.2413 207.114 94.84 206.999 94.492 206.769C94.144 206.537 93.8717 206.21 93.6752 205.789C93.4788 205.365 93.3805 204.865 93.3805 204.287C93.3805 203.714 93.4788 203.217 93.6752 202.795C93.8717 202.374 94.1452 202.049 94.4956 201.819C94.8459 201.589 95.2508 201.474 95.71 201.474C96.0652 201.474 96.3457 201.534 96.5517 201.652C96.76 201.768 96.9186 201.901 97.0275 202.05C97.1388 202.196 97.2252 202.317 97.2868 202.412H97.3578V199.727H98.1958V207H97.3862V206.162H97.2868C97.2252 206.261 97.1376 206.387 97.024 206.538C96.9103 206.687 96.7482 206.821 96.5375 206.94C96.3268 207.056 96.0462 207.114 95.6958 207.114ZM95.8095 206.361C96.1457 206.361 96.4297 206.273 96.6618 206.098C96.8938 205.92 97.0701 205.675 97.1909 205.363C97.3116 205.048 97.372 204.685 97.372 204.273C97.372 203.866 97.3128 203.509 97.1944 203.204C97.0761 202.896 96.9009 202.657 96.6689 202.487C96.4368 202.314 96.1504 202.227 95.8095 202.227C95.4544 202.227 95.1584 202.318 94.9217 202.501C94.6873 202.681 94.5109 202.926 94.3926 203.236C94.2766 203.544 94.2186 203.889 94.2186 204.273C94.2186 204.661 94.2778 205.014 94.3961 205.331C94.5169 205.646 94.6944 205.897 94.9288 206.084C95.1655 206.268 95.4591 206.361 95.8095 206.361ZM103.285 204.77V201.545H104.123V207H103.285V206.077H103.228C103.1 206.354 102.901 206.589 102.631 206.783C102.361 206.975 102.02 207.071 101.608 207.071C101.268 207.071 100.965 206.996 100.699 206.847C100.434 206.696 100.226 206.469 100.074 206.165C99.9229 205.86 99.8471 205.475 99.8471 205.011V201.545H100.685V204.955C100.685 205.352 100.796 205.67 101.019 205.906C101.244 206.143 101.53 206.261 101.878 206.261C102.087 206.261 102.299 206.208 102.514 206.102C102.732 205.995 102.914 205.832 103.061 205.612C103.21 205.391 103.285 205.111 103.285 204.77ZM107.874 207.114C107.362 207.114 106.922 206.993 106.553 206.751C106.183 206.51 105.899 206.177 105.7 205.754C105.501 205.33 105.402 204.846 105.402 204.301C105.402 203.747 105.504 203.258 105.707 202.835C105.913 202.408 106.2 202.076 106.567 201.837C106.936 201.595 107.367 201.474 107.859 201.474C108.243 201.474 108.589 201.545 108.896 201.688C109.204 201.83 109.456 202.028 109.653 202.284C109.849 202.54 109.971 202.838 110.018 203.179H109.18C109.116 202.93 108.974 202.71 108.754 202.518C108.536 202.324 108.243 202.227 107.874 202.227C107.547 202.227 107.26 202.312 107.014 202.483C106.77 202.651 106.58 202.889 106.442 203.197C106.308 203.502 106.24 203.861 106.24 204.273C106.24 204.694 106.306 205.061 106.439 205.374C106.574 205.686 106.763 205.929 107.007 206.102C107.253 206.274 107.542 206.361 107.874 206.361C108.091 206.361 108.289 206.323 108.467 206.247C108.644 206.171 108.795 206.062 108.918 205.92C109.041 205.778 109.128 205.608 109.18 205.409H110.018C109.971 205.731 109.854 206.021 109.667 206.279C109.482 206.535 109.237 206.738 108.932 206.89C108.629 207.039 108.276 207.114 107.874 207.114ZM113.616 201.545V202.256H110.789V201.545H113.616ZM111.613 200.239H112.451V205.438C112.451 205.674 112.485 205.852 112.554 205.97C112.625 206.086 112.715 206.164 112.824 206.205C112.935 206.242 113.052 206.261 113.175 206.261C113.268 206.261 113.344 206.257 113.403 206.247C113.462 206.235 113.509 206.226 113.545 206.219L113.715 206.972C113.658 206.993 113.579 207.014 113.477 207.036C113.375 207.059 113.246 207.071 113.09 207.071C112.853 207.071 112.621 207.02 112.394 206.918C112.169 206.817 111.982 206.661 111.833 206.453C111.686 206.245 111.613 205.982 111.613 205.665V200.239ZM118.642 202.767L117.89 202.98C117.842 202.855 117.772 202.733 117.68 202.614C117.59 202.494 117.467 202.394 117.311 202.316C117.154 202.238 116.954 202.199 116.711 202.199C116.377 202.199 116.099 202.276 115.876 202.43C115.656 202.581 115.546 202.774 115.546 203.009C115.546 203.217 115.622 203.381 115.773 203.502C115.925 203.623 116.161 203.723 116.483 203.804L117.293 204.003C117.781 204.121 118.144 204.302 118.383 204.546C118.622 204.788 118.742 205.099 118.742 205.48C118.742 205.793 118.652 206.072 118.472 206.318C118.294 206.564 118.046 206.759 117.726 206.901C117.407 207.043 117.035 207.114 116.611 207.114C116.055 207.114 115.594 206.993 115.23 206.751C114.865 206.51 114.634 206.157 114.537 205.693L115.333 205.494C115.408 205.788 115.552 206.008 115.762 206.155C115.975 206.302 116.254 206.375 116.597 206.375C116.988 206.375 117.298 206.292 117.527 206.126C117.759 205.958 117.875 205.757 117.875 205.523C117.875 205.333 117.809 205.175 117.676 205.047C117.544 204.917 117.34 204.82 117.066 204.756L116.157 204.543C115.657 204.424 115.29 204.241 115.056 203.992C114.824 203.741 114.708 203.428 114.708 203.051C114.708 202.743 114.794 202.471 114.967 202.234C115.142 201.998 115.38 201.812 115.681 201.677C115.984 201.542 116.327 201.474 116.711 201.474C117.25 201.474 117.674 201.593 117.982 201.83C118.292 202.066 118.512 202.379 118.642 202.767Z" fill="black"/>
<circle cx="237.5" cy="200.5" r="42.5" fill="#D9D9D9"/>
<path d="M216.881 195V187.727H221.27V188.509H217.761V190.966H221.043V191.747H217.761V194.219H221.327V195H216.881ZM223.582 187.727V195H222.744V187.727H223.582ZM227.404 195.114C226.878 195.114 226.425 194.998 226.044 194.766C225.665 194.531 225.372 194.205 225.166 193.786C224.963 193.364 224.861 192.874 224.861 192.315C224.861 191.757 224.963 191.264 225.166 190.838C225.372 190.41 225.659 190.076 226.026 189.837C226.395 189.595 226.826 189.474 227.318 189.474C227.602 189.474 227.883 189.522 228.16 189.616C228.437 189.711 228.689 189.865 228.916 190.078C229.144 190.289 229.325 190.568 229.46 190.916C229.595 191.264 229.662 191.693 229.662 192.202V192.557H225.458V191.832H228.81C228.81 191.525 228.748 191.25 228.625 191.009C228.504 190.767 228.332 190.576 228.107 190.437C227.884 190.297 227.621 190.227 227.318 190.227C226.985 190.227 226.696 190.31 226.452 190.476C226.21 190.639 226.025 190.852 225.894 191.115C225.764 191.378 225.699 191.66 225.699 191.96V192.443C225.699 192.855 225.77 193.204 225.912 193.491C226.057 193.775 226.257 193.991 226.512 194.141C226.768 194.287 227.065 194.361 227.404 194.361C227.624 194.361 227.823 194.33 228 194.268C228.18 194.205 228.335 194.11 228.465 193.984C228.596 193.857 228.696 193.698 228.767 193.509L229.577 193.736C229.492 194.01 229.348 194.252 229.147 194.46C228.946 194.666 228.697 194.827 228.401 194.943C228.106 195.057 227.773 195.114 227.404 195.114ZM233.153 195.114C232.642 195.114 232.201 194.993 231.832 194.751C231.463 194.51 231.178 194.177 230.98 193.754C230.781 193.33 230.681 192.846 230.681 192.301C230.681 191.747 230.783 191.258 230.987 190.835C231.193 190.408 231.479 190.076 231.846 189.837C232.215 189.595 232.646 189.474 233.139 189.474C233.522 189.474 233.868 189.545 234.176 189.688C234.483 189.83 234.735 190.028 234.932 190.284C235.128 190.54 235.25 190.838 235.298 191.179H234.46C234.396 190.93 234.254 190.71 234.034 190.518C233.816 190.324 233.522 190.227 233.153 190.227C232.826 190.227 232.54 190.312 232.294 190.483C232.05 190.651 231.859 190.889 231.722 191.197C231.587 191.502 231.519 191.861 231.519 192.273C231.519 192.694 231.586 193.061 231.718 193.374C231.853 193.686 232.043 193.929 232.286 194.102C232.533 194.274 232.821 194.361 233.153 194.361C233.371 194.361 233.568 194.323 233.746 194.247C233.923 194.171 234.074 194.062 234.197 193.92C234.32 193.778 234.408 193.608 234.46 193.409H235.298C235.25 193.731 235.133 194.021 234.946 194.279C234.762 194.535 234.517 194.738 234.211 194.89C233.908 195.039 233.555 195.114 233.153 195.114ZM238.895 189.545V190.256H236.068V189.545H238.895ZM236.892 188.239H237.73V193.438C237.73 193.674 237.765 193.852 237.833 193.97C237.904 194.086 237.994 194.164 238.103 194.205C238.214 194.242 238.332 194.261 238.455 194.261C238.547 194.261 238.623 194.257 238.682 194.247C238.741 194.235 238.789 194.226 238.824 194.219L238.994 194.972C238.938 194.993 238.858 195.014 238.757 195.036C238.655 195.059 238.526 195.071 238.369 195.071C238.133 195.071 237.901 195.02 237.673 194.918C237.449 194.817 237.262 194.661 237.112 194.453C236.966 194.245 236.892 193.982 236.892 193.665V188.239ZM240.156 195V189.545H240.965V190.369H241.022C241.122 190.099 241.302 189.88 241.562 189.712C241.822 189.544 242.116 189.46 242.443 189.46C242.504 189.46 242.581 189.461 242.673 189.464C242.766 189.466 242.836 189.47 242.883 189.474V190.327C242.855 190.32 242.789 190.309 242.688 190.295C242.588 190.278 242.483 190.27 242.372 190.27C242.106 190.27 241.87 190.326 241.661 190.437C241.455 190.546 241.292 190.697 241.171 190.891C241.053 191.083 240.994 191.302 240.994 191.548V195H240.156ZM245.926 195.114C245.434 195.114 245.002 194.996 244.63 194.762C244.261 194.528 243.972 194.2 243.764 193.778C243.558 193.357 243.455 192.865 243.455 192.301C243.455 191.733 243.558 191.237 243.764 190.813C243.972 190.389 244.261 190.06 244.63 189.826C245.002 189.592 245.434 189.474 245.926 189.474C246.419 189.474 246.85 189.592 247.219 189.826C247.591 190.06 247.879 190.389 248.085 190.813C248.294 191.237 248.398 191.733 248.398 192.301C248.398 192.865 248.294 193.357 248.085 193.778C247.879 194.2 247.591 194.528 247.219 194.762C246.85 194.996 246.419 195.114 245.926 195.114ZM245.926 194.361C246.3 194.361 246.608 194.265 246.85 194.073C247.091 193.881 247.27 193.629 247.386 193.317C247.502 193.004 247.56 192.666 247.56 192.301C247.56 191.937 247.502 191.597 247.386 191.282C247.27 190.967 247.091 190.713 246.85 190.518C246.608 190.324 246.3 190.227 245.926 190.227C245.552 190.227 245.244 190.324 245.003 190.518C244.762 190.713 244.583 190.967 244.467 191.282C244.351 191.597 244.293 191.937 244.293 192.301C244.293 192.666 244.351 193.004 244.467 193.317C244.583 193.629 244.762 193.881 245.003 194.073C245.244 194.265 245.552 194.361 245.926 194.361ZM250.515 191.719V195H249.677V189.545H250.487V190.398H250.558C250.686 190.121 250.88 189.898 251.14 189.73C251.401 189.56 251.737 189.474 252.149 189.474C252.518 189.474 252.841 189.55 253.118 189.702C253.395 189.851 253.611 190.078 253.765 190.384C253.918 190.687 253.995 191.07 253.995 191.534V195H253.157V191.591C253.157 191.162 253.046 190.829 252.824 190.589C252.601 190.348 252.296 190.227 251.907 190.227C251.64 190.227 251.401 190.285 251.19 190.401C250.982 190.517 250.817 190.687 250.696 190.909C250.576 191.132 250.515 191.402 250.515 191.719ZM255.527 195V189.545H256.365V195H255.527ZM255.953 188.636C255.79 188.636 255.649 188.581 255.53 188.469C255.414 188.358 255.356 188.224 255.356 188.068C255.356 187.912 255.414 187.778 255.53 187.667C255.649 187.556 255.79 187.5 255.953 187.5C256.116 187.5 256.256 187.556 256.372 187.667C256.49 187.778 256.55 187.912 256.55 188.068C256.55 188.224 256.49 188.358 256.372 188.469C256.256 188.581 256.116 188.636 255.953 188.636ZM260.116 195.114C259.604 195.114 259.164 194.993 258.795 194.751C258.425 194.51 258.141 194.177 257.942 193.754C257.744 193.33 257.644 192.846 257.644 192.301C257.644 191.747 257.746 191.258 257.95 190.835C258.156 190.408 258.442 190.076 258.809 189.837C259.178 189.595 259.609 189.474 260.102 189.474C260.485 189.474 260.831 189.545 261.138 189.688C261.446 189.83 261.698 190.028 261.895 190.284C262.091 190.54 262.213 190.838 262.261 191.179H261.423C261.359 190.93 261.217 190.71 260.996 190.518C260.779 190.324 260.485 190.227 260.116 190.227C259.789 190.227 259.503 190.312 259.256 190.483C259.013 190.651 258.822 190.889 258.685 191.197C258.55 191.502 258.482 191.861 258.482 192.273C258.482 192.694 258.549 193.061 258.681 193.374C258.816 193.686 259.005 193.929 259.249 194.102C259.496 194.274 259.784 194.361 260.116 194.361C260.334 194.361 260.531 194.323 260.709 194.247C260.886 194.171 261.037 194.062 261.16 193.92C261.283 193.778 261.371 193.608 261.423 193.409H262.261C262.213 193.731 262.096 194.021 261.909 194.279C261.724 194.535 261.479 194.738 261.174 194.89C260.871 195.039 260.518 195.114 260.116 195.114ZM216.881 207V199.727H219.338C219.909 199.727 220.375 199.83 220.737 200.036C221.102 200.24 221.372 200.516 221.547 200.864C221.722 201.212 221.81 201.6 221.81 202.028C221.81 202.457 221.722 202.846 221.547 203.197C221.374 203.547 221.107 203.826 220.744 204.035C220.382 204.241 219.918 204.344 219.352 204.344H217.591V203.562H219.324C219.714 203.562 220.028 203.495 220.265 203.36C220.502 203.225 220.673 203.043 220.78 202.813C220.889 202.581 220.943 202.32 220.943 202.028C220.943 201.737 220.889 201.477 220.78 201.247C220.673 201.018 220.5 200.838 220.261 200.707C220.022 200.575 219.705 200.509 219.31 200.509H217.761V207H216.881ZM223.115 207V201.545H223.924V202.369H223.981C224.081 202.099 224.261 201.88 224.521 201.712C224.781 201.544 225.075 201.46 225.402 201.46C225.463 201.46 225.54 201.461 225.632 201.464C225.725 201.466 225.795 201.47 225.842 201.474V202.327C225.814 202.32 225.748 202.309 225.647 202.295C225.547 202.278 225.442 202.27 225.331 202.27C225.065 202.27 224.829 202.326 224.62 202.437C224.414 202.546 224.251 202.697 224.13 202.891C224.012 203.083 223.953 203.302 223.953 203.548V207H223.115ZM228.885 207.114C228.393 207.114 227.961 206.996 227.589 206.762C227.22 206.528 226.931 206.2 226.723 205.778C226.517 205.357 226.414 204.865 226.414 204.301C226.414 203.733 226.517 203.237 226.723 202.813C226.931 202.389 227.22 202.06 227.589 201.826C227.961 201.592 228.393 201.474 228.885 201.474C229.378 201.474 229.809 201.592 230.178 201.826C230.55 202.06 230.838 202.389 231.044 202.813C231.253 203.237 231.357 203.733 231.357 204.301C231.357 204.865 231.253 205.357 231.044 205.778C230.838 206.2 230.55 206.528 230.178 206.762C229.809 206.996 229.378 207.114 228.885 207.114ZM228.885 206.361C229.259 206.361 229.567 206.265 229.809 206.073C230.05 205.881 230.229 205.629 230.345 205.317C230.461 205.004 230.519 204.666 230.519 204.301C230.519 203.937 230.461 203.597 230.345 203.282C230.229 202.967 230.05 202.713 229.809 202.518C229.567 202.324 229.259 202.227 228.885 202.227C228.511 202.227 228.203 202.324 227.962 202.518C227.721 202.713 227.542 202.967 227.426 203.282C227.31 203.597 227.252 203.937 227.252 204.301C227.252 204.666 227.31 205.004 227.426 205.317C227.542 205.629 227.721 205.881 227.962 206.073C228.203 206.265 228.511 206.361 228.885 206.361ZM234.696 207.114C234.241 207.114 233.84 206.999 233.492 206.769C233.144 206.537 232.872 206.21 232.675 205.789C232.479 205.365 232.381 204.865 232.381 204.287C232.381 203.714 232.479 203.217 232.675 202.795C232.872 202.374 233.145 202.049 233.496 201.819C233.846 201.589 234.251 201.474 234.71 201.474C235.065 201.474 235.346 201.534 235.552 201.652C235.76 201.768 235.919 201.901 236.028 202.05C236.139 202.196 236.225 202.317 236.287 202.412H236.358V199.727H237.196V207H236.386V206.162H236.287C236.225 206.261 236.138 206.387 236.024 206.538C235.91 206.687 235.748 206.821 235.537 206.94C235.327 207.056 235.046 207.114 234.696 207.114ZM234.809 206.361C235.146 206.361 235.43 206.273 235.662 206.098C235.894 205.92 236.07 205.675 236.191 205.363C236.312 205.048 236.372 204.685 236.372 204.273C236.372 203.866 236.313 203.509 236.194 203.204C236.076 202.896 235.901 202.657 235.669 202.487C235.437 202.314 235.15 202.227 234.809 202.227C234.454 202.227 234.158 202.318 233.922 202.501C233.687 202.681 233.511 202.926 233.393 203.236C233.277 203.544 233.219 203.889 233.219 204.273C233.219 204.661 233.278 205.014 233.396 205.331C233.517 205.646 233.694 205.897 233.929 206.084C234.166 206.268 234.459 206.361 234.809 206.361ZM242.285 204.77V201.545H243.123V207H242.285V206.077H242.228C242.1 206.354 241.901 206.589 241.631 206.783C241.361 206.975 241.02 207.071 240.608 207.071C240.268 207.071 239.965 206.996 239.699 206.847C239.434 206.696 239.226 206.469 239.074 206.165C238.923 205.86 238.847 205.475 238.847 205.011V201.545H239.685V204.955C239.685 205.352 239.796 205.67 240.019 205.906C240.244 206.143 240.53 206.261 240.878 206.261C241.087 206.261 241.299 206.208 241.514 206.102C241.732 205.995 241.914 205.832 242.061 205.612C242.21 205.391 242.285 205.111 242.285 204.77ZM246.874 207.114C246.362 207.114 245.922 206.993 245.553 206.751C245.183 206.51 244.899 206.177 244.7 205.754C244.501 205.33 244.402 204.846 244.402 204.301C244.402 203.747 244.504 203.258 244.707 202.835C244.913 202.408 245.2 202.076 245.567 201.837C245.936 201.595 246.367 201.474 246.859 201.474C247.243 201.474 247.589 201.545 247.896 201.688C248.204 201.83 248.456 202.028 248.653 202.284C248.849 202.54 248.971 202.838 249.018 203.179H248.18C248.116 202.93 247.974 202.71 247.754 202.518C247.536 202.324 247.243 202.227 246.874 202.227C246.547 202.227 246.26 202.312 246.014 202.483C245.77 202.651 245.58 202.889 245.442 203.197C245.308 203.502 245.24 203.861 245.24 204.273C245.24 204.694 245.306 205.061 245.439 205.374C245.574 205.686 245.763 205.929 246.007 206.102C246.253 206.274 246.542 206.361 246.874 206.361C247.091 206.361 247.289 206.323 247.467 206.247C247.644 206.171 247.795 206.062 247.918 205.92C248.041 205.778 248.128 205.608 248.18 205.409H249.018C248.971 205.731 248.854 206.021 248.667 206.279C248.482 206.535 248.237 206.738 247.932 206.89C247.629 207.039 247.276 207.114 246.874 207.114ZM252.616 201.545V202.256H249.789V201.545H252.616ZM250.613 200.239H251.451V205.438C251.451 205.674 251.485 205.852 251.554 205.97C251.625 206.086 251.715 206.164 251.824 206.205C251.935 206.242 252.052 206.261 252.175 206.261C252.268 206.261 252.344 206.257 252.403 206.247C252.462 206.235 252.509 206.226 252.545 206.219L252.715 206.972C252.658 206.993 252.579 207.014 252.477 207.036C252.375 207.059 252.246 207.071 252.09 207.071C251.853 207.071 251.621 207.02 251.394 206.918C251.169 206.817 250.982 206.661 250.833 206.453C250.686 206.245 250.613 205.982 250.613 205.665V200.239ZM257.642 202.767L256.89 202.98C256.842 202.855 256.772 202.733 256.68 202.614C256.59 202.494 256.467 202.394 256.311 202.316C256.154 202.238 255.954 202.199 255.711 202.199C255.377 202.199 255.099 202.276 254.876 202.43C254.656 202.581 254.546 202.774 254.546 203.009C254.546 203.217 254.622 203.381 254.773 203.502C254.925 203.623 255.161 203.723 255.483 203.804L256.293 204.003C256.781 204.121 257.144 204.302 257.383 204.546C257.622 204.788 257.742 205.099 257.742 205.48C257.742 205.793 257.652 206.072 257.472 206.318C257.294 206.564 257.046 206.759 256.726 206.901C256.407 207.043 256.035 207.114 255.611 207.114C255.055 207.114 254.594 206.993 254.23 206.751C253.865 206.51 253.634 206.157 253.537 205.693L254.333 205.494C254.408 205.788 254.552 206.008 254.762 206.155C254.975 206.302 255.254 206.375 255.597 206.375C255.988 206.375 256.298 206.292 256.527 206.126C256.759 205.958 256.875 205.757 256.875 205.523C256.875 205.333 256.809 205.175 256.676 205.047C256.544 204.917 256.34 204.82 256.066 204.756L255.157 204.543C254.657 204.424 254.29 204.241 254.056 203.992C253.824 203.741 253.708 203.428 253.708 203.051C253.708 202.743 253.794 202.471 253.967 202.234C254.142 201.998 254.38 201.812 254.681 201.677C254.984 201.542 255.327 201.474 255.711 201.474C256.25 201.474 256.674 201.593 256.982 201.83C257.292 202.066 257.512 202.379 257.642 202.767Z" fill="black"/>
<circle cx="376.5" cy="200.5" r="42.5" fill="#D9D9D9"/>
<path d="M360.179 202H359.256L361.926 194.727H362.835L365.506 202H364.582L362.409 195.878H362.352L360.179 202ZM360.52 199.159H364.241V199.94H360.52V199.159ZM366.638 202V194.727H367.477V197.412H367.548C367.609 197.317 367.694 197.196 367.803 197.05C367.915 196.901 368.073 196.768 368.279 196.652C368.487 196.534 368.769 196.474 369.124 196.474C369.584 196.474 369.988 196.589 370.339 196.819C370.689 197.049 370.963 197.374 371.159 197.795C371.356 198.217 371.454 198.714 371.454 199.287C371.454 199.865 371.356 200.365 371.159 200.789C370.963 201.21 370.69 201.537 370.342 201.769C369.994 201.999 369.593 202.114 369.138 202.114C368.788 202.114 368.508 202.056 368.297 201.94C368.086 201.821 367.924 201.687 367.81 201.538C367.697 201.387 367.609 201.261 367.548 201.162H367.448V202H366.638ZM367.462 199.273C367.462 199.685 367.523 200.048 367.643 200.363C367.764 200.675 367.941 200.92 368.173 201.098C368.405 201.273 368.689 201.361 369.025 201.361C369.375 201.361 369.668 201.268 369.902 201.084C370.139 200.897 370.316 200.646 370.435 200.331C370.555 200.014 370.616 199.661 370.616 199.273C370.616 198.889 370.557 198.544 370.438 198.236C370.322 197.926 370.146 197.681 369.909 197.501C369.675 197.318 369.38 197.227 369.025 197.227C368.684 197.227 368.397 197.314 368.165 197.487C367.933 197.657 367.758 197.896 367.64 198.204C367.522 198.509 367.462 198.866 367.462 199.273ZM374.952 202.114C374.459 202.114 374.027 201.996 373.656 201.762C373.286 201.528 372.997 201.2 372.789 200.778C372.583 200.357 372.48 199.865 372.48 199.301C372.48 198.733 372.583 198.237 372.789 197.813C372.997 197.389 373.286 197.06 373.656 196.826C374.027 196.592 374.459 196.474 374.952 196.474C375.444 196.474 375.875 196.592 376.244 196.826C376.616 197.06 376.905 197.389 377.111 197.813C377.319 198.237 377.423 198.733 377.423 199.301C377.423 199.865 377.319 200.357 377.111 200.778C376.905 201.2 376.616 201.528 376.244 201.762C375.875 201.996 375.444 202.114 374.952 202.114ZM374.952 201.361C375.326 201.361 375.634 201.265 375.875 201.073C376.116 200.881 376.295 200.629 376.411 200.317C376.527 200.004 376.585 199.666 376.585 199.301C376.585 198.937 376.527 198.597 376.411 198.282C376.295 197.967 376.116 197.713 375.875 197.518C375.634 197.324 375.326 197.227 374.952 197.227C374.578 197.227 374.27 197.324 374.028 197.518C373.787 197.713 373.608 197.967 373.492 198.282C373.376 198.597 373.318 198.937 373.318 199.301C373.318 199.666 373.376 200.004 373.492 200.317C373.608 200.629 373.787 200.881 374.028 201.073C374.27 201.265 374.578 201.361 374.952 201.361ZM382.14 199.77V196.545H382.978V202H382.14V201.077H382.083C381.955 201.354 381.757 201.589 381.487 201.783C381.217 201.975 380.876 202.071 380.464 202.071C380.123 202.071 379.82 201.996 379.555 201.847C379.29 201.696 379.081 201.469 378.93 201.165C378.778 200.86 378.703 200.475 378.703 200.011V196.545H379.541V199.955C379.541 200.352 379.652 200.67 379.874 200.906C380.099 201.143 380.386 201.261 380.734 201.261C380.942 201.261 381.154 201.208 381.369 201.102C381.587 200.995 381.77 200.832 381.916 200.612C382.066 200.391 382.14 200.111 382.14 199.77ZM386.885 196.545V197.256H384.059V196.545H386.885ZM384.882 195.239H385.721V200.438C385.721 200.674 385.755 200.852 385.824 200.97C385.895 201.086 385.984 201.164 386.093 201.205C386.205 201.242 386.322 201.261 386.445 201.261C386.537 201.261 386.613 201.257 386.672 201.247C386.731 201.235 386.779 201.226 386.814 201.219L386.985 201.972C386.928 201.993 386.849 202.014 386.747 202.036C386.645 202.059 386.516 202.071 386.36 202.071C386.123 202.071 385.891 202.02 385.664 201.918C385.439 201.817 385.252 201.661 385.103 201.453C384.956 201.245 384.882 200.982 384.882 200.665V195.239ZM395.845 194.727H396.725V199.543C396.725 200.04 396.608 200.484 396.374 200.874C396.142 201.263 395.814 201.569 395.39 201.794C394.967 202.017 394.469 202.128 393.899 202.128C393.328 202.128 392.831 202.017 392.407 201.794C391.984 201.569 391.654 201.263 391.42 200.874C391.188 200.484 391.072 200.04 391.072 199.543V194.727H391.953V199.472C391.953 199.827 392.031 200.143 392.187 200.42C392.343 200.694 392.566 200.911 392.855 201.07C393.146 201.226 393.494 201.304 393.899 201.304C394.304 201.304 394.652 201.226 394.943 201.07C395.234 200.911 395.457 200.694 395.61 200.42C395.767 200.143 395.845 199.827 395.845 199.472V194.727ZM402.234 197.767L401.481 197.98C401.434 197.855 401.364 197.733 401.272 197.614C401.182 197.494 401.059 197.394 400.903 197.316C400.746 197.238 400.546 197.199 400.302 197.199C399.969 197.199 399.69 197.276 399.468 197.43C399.248 197.581 399.138 197.774 399.138 198.009C399.138 198.217 399.213 198.381 399.365 198.502C399.516 198.623 399.753 198.723 400.075 198.804L400.885 199.003C401.372 199.121 401.736 199.302 401.975 199.546C402.214 199.788 402.334 200.099 402.334 200.48C402.334 200.793 402.244 201.072 402.064 201.318C401.886 201.564 401.638 201.759 401.318 201.901C400.998 202.043 400.627 202.114 400.203 202.114C399.647 202.114 399.186 201.993 398.822 201.751C398.457 201.51 398.226 201.157 398.129 200.693L398.925 200.494C399 200.788 399.144 201.008 399.354 201.155C399.567 201.302 399.845 201.375 400.189 201.375C400.579 201.375 400.89 201.292 401.119 201.126C401.351 200.958 401.467 200.757 401.467 200.523C401.467 200.333 401.401 200.175 401.268 200.047C401.136 199.917 400.932 199.82 400.657 199.756L399.748 199.543C399.249 199.424 398.882 199.241 398.648 198.992C398.416 198.741 398.3 198.428 398.3 198.051C398.3 197.743 398.386 197.471 398.559 197.234C398.734 196.998 398.972 196.812 399.273 196.677C399.576 196.542 399.919 196.474 400.302 196.474C400.842 196.474 401.266 196.593 401.574 196.83C401.884 197.066 402.104 197.379 402.234 197.767Z" fill="black"/>
<circle cx="515.5" cy="203.5" r="42.5" fill="#D9D9D9"/>
<path d="M500.733 198H499.852C499.8 197.747 499.709 197.524 499.579 197.332C499.451 197.141 499.295 196.98 499.11 196.849C498.928 196.717 498.725 196.617 498.503 196.551C498.28 196.485 498.048 196.452 497.807 196.452C497.366 196.452 496.968 196.563 496.61 196.786C496.255 197.008 495.972 197.336 495.761 197.769C495.553 198.202 495.449 198.734 495.449 199.364C495.449 199.993 495.553 200.525 495.761 200.958C495.972 201.391 496.255 201.719 496.61 201.942C496.968 202.164 497.366 202.276 497.807 202.276C498.048 202.276 498.28 202.242 498.503 202.176C498.725 202.11 498.928 202.012 499.11 201.881C499.295 201.749 499.451 201.587 499.579 201.395C499.709 201.201 499.8 200.978 499.852 200.727H500.733C500.667 201.099 500.546 201.432 500.371 201.725C500.196 202.019 499.978 202.268 499.717 202.474C499.457 202.678 499.165 202.833 498.84 202.94C498.518 203.046 498.174 203.099 497.807 203.099C497.187 203.099 496.635 202.948 496.152 202.645C495.669 202.342 495.289 201.911 495.012 201.352C494.735 200.794 494.597 200.131 494.597 199.364C494.597 198.597 494.735 197.934 495.012 197.375C495.289 196.816 495.669 196.385 496.152 196.082C496.635 195.779 497.187 195.628 497.807 195.628C498.174 195.628 498.518 195.681 498.84 195.788C499.165 195.894 499.457 196.05 499.717 196.256C499.978 196.46 500.196 196.709 500.371 197.002C500.546 197.293 500.667 197.626 500.733 198ZM504.258 203.114C503.766 203.114 503.334 202.996 502.962 202.762C502.593 202.528 502.304 202.2 502.096 201.778C501.89 201.357 501.787 200.865 501.787 200.301C501.787 199.733 501.89 199.237 502.096 198.813C502.304 198.389 502.593 198.06 502.962 197.826C503.334 197.592 503.766 197.474 504.258 197.474C504.751 197.474 505.182 197.592 505.551 197.826C505.923 198.06 506.211 198.389 506.417 198.813C506.626 199.237 506.73 199.733 506.73 200.301C506.73 200.865 506.626 201.357 506.417 201.778C506.211 202.2 505.923 202.528 505.551 202.762C505.182 202.996 504.751 203.114 504.258 203.114ZM504.258 202.361C504.632 202.361 504.94 202.265 505.182 202.073C505.423 201.881 505.602 201.629 505.718 201.317C505.834 201.004 505.892 200.666 505.892 200.301C505.892 199.937 505.834 199.597 505.718 199.282C505.602 198.967 505.423 198.713 505.182 198.518C504.94 198.324 504.632 198.227 504.258 198.227C503.884 198.227 503.577 198.324 503.335 198.518C503.094 198.713 502.915 198.967 502.799 199.282C502.683 199.597 502.625 199.937 502.625 200.301C502.625 200.666 502.683 201.004 502.799 201.317C502.915 201.629 503.094 201.881 503.335 202.073C503.577 202.265 503.884 202.361 504.258 202.361ZM508.847 199.719V203H508.009V197.545H508.819V198.398H508.89C509.018 198.121 509.212 197.898 509.472 197.73C509.733 197.56 510.069 197.474 510.481 197.474C510.85 197.474 511.173 197.55 511.45 197.702C511.727 197.851 511.943 198.078 512.097 198.384C512.25 198.687 512.327 199.07 512.327 199.534V203H511.489V199.591C511.489 199.162 511.378 198.829 511.156 198.589C510.933 198.348 510.628 198.227 510.239 198.227C509.972 198.227 509.733 198.285 509.522 198.401C509.314 198.517 509.149 198.687 509.028 198.909C508.908 199.132 508.847 199.402 508.847 199.719ZM516.231 197.545V198.256H513.404V197.545H516.231ZM514.228 196.239H515.066V201.438C515.066 201.674 515.101 201.852 515.169 201.97C515.24 202.086 515.33 202.164 515.439 202.205C515.55 202.242 515.668 202.261 515.791 202.261C515.883 202.261 515.959 202.257 516.018 202.247C516.077 202.235 516.124 202.226 516.16 202.219L516.33 202.972C516.274 202.993 516.194 203.014 516.093 203.036C515.991 203.059 515.862 203.071 515.705 203.071C515.469 203.071 515.237 203.02 515.009 202.918C514.785 202.817 514.597 202.661 514.448 202.453C514.302 202.245 514.228 201.982 514.228 201.665V196.239ZM519.097 203.128C518.751 203.128 518.437 203.063 518.156 202.933C517.874 202.8 517.65 202.609 517.485 202.361C517.319 202.11 517.236 201.807 517.236 201.452C517.236 201.139 517.298 200.886 517.421 200.692C517.544 200.495 517.708 200.341 517.914 200.23C518.12 200.119 518.347 200.036 518.596 199.982C518.847 199.925 519.099 199.88 519.352 199.847C519.684 199.804 519.953 199.772 520.159 199.751C520.367 199.727 520.518 199.688 520.613 199.634C520.71 199.579 520.759 199.484 520.759 199.349V199.321C520.759 198.971 520.663 198.698 520.471 198.504C520.282 198.31 519.994 198.213 519.608 198.213C519.208 198.213 518.894 198.301 518.667 198.476C518.44 198.651 518.28 198.838 518.188 199.037L517.392 198.753C517.534 198.421 517.724 198.163 517.96 197.979C518.2 197.792 518.46 197.661 518.742 197.588C519.026 197.512 519.305 197.474 519.58 197.474C519.755 197.474 519.956 197.496 520.183 197.538C520.413 197.579 520.634 197.663 520.847 197.79C521.063 197.918 521.242 198.111 521.384 198.369C521.526 198.627 521.597 198.973 521.597 199.406V203H520.759V202.261H520.716C520.659 202.38 520.565 202.506 520.432 202.641C520.299 202.776 520.123 202.891 519.903 202.986C519.683 203.08 519.414 203.128 519.097 203.128ZM519.225 202.375C519.556 202.375 519.835 202.31 520.063 202.18C520.292 202.049 520.465 201.881 520.581 201.675C520.7 201.469 520.759 201.253 520.759 201.026V200.259C520.723 200.301 520.645 200.34 520.524 200.376C520.406 200.409 520.269 200.438 520.112 200.464C519.959 200.488 519.808 200.509 519.661 200.528C519.517 200.545 519.4 200.559 519.31 200.571C519.092 200.599 518.888 200.646 518.699 200.71C518.512 200.771 518.36 200.865 518.244 200.99C518.131 201.113 518.074 201.281 518.074 201.494C518.074 201.786 518.182 202.006 518.397 202.155C518.615 202.302 518.891 202.375 519.225 202.375ZM525.342 203.114C524.831 203.114 524.391 202.993 524.021 202.751C523.652 202.51 523.368 202.177 523.169 201.754C522.97 201.33 522.871 200.846 522.871 200.301C522.871 199.747 522.973 199.258 523.176 198.835C523.382 198.408 523.669 198.076 524.036 197.837C524.405 197.595 524.836 197.474 525.328 197.474C525.712 197.474 526.057 197.545 526.365 197.688C526.673 197.83 526.925 198.028 527.121 198.284C527.318 198.54 527.44 198.838 527.487 199.179H526.649C526.585 198.93 526.443 198.71 526.223 198.518C526.005 198.324 525.712 198.227 525.342 198.227C525.016 198.227 524.729 198.312 524.483 198.483C524.239 198.651 524.049 198.889 523.911 199.197C523.776 199.502 523.709 199.861 523.709 200.273C523.709 200.694 523.775 201.061 523.908 201.374C524.043 201.686 524.232 201.929 524.476 202.102C524.722 202.274 525.011 202.361 525.342 202.361C525.56 202.361 525.758 202.323 525.935 202.247C526.113 202.171 526.263 202.062 526.386 201.92C526.509 201.778 526.597 201.608 526.649 201.409H527.487C527.44 201.731 527.323 202.021 527.136 202.279C526.951 202.535 526.706 202.738 526.401 202.89C526.098 203.039 525.745 203.114 525.342 203.114ZM531.085 197.545V198.256H528.258V197.545H531.085ZM529.082 196.239H529.92V201.438C529.92 201.674 529.954 201.852 530.023 201.97C530.094 202.086 530.184 202.164 530.293 202.205C530.404 202.242 530.521 202.261 530.644 202.261C530.737 202.261 530.812 202.257 530.871 202.247C530.931 202.235 530.978 202.226 531.013 202.219L531.184 202.972C531.127 202.993 531.048 203.014 530.946 203.036C530.844 203.059 530.715 203.071 530.559 203.071C530.322 203.071 530.09 203.02 529.863 202.918C529.638 202.817 529.451 202.661 529.302 202.453C529.155 202.245 529.082 201.982 529.082 201.665V196.239Z" fill="black"/>
<circle cx="653.5" cy="200.5" r="42.5" fill="#D9D9D9"/>
<path d="M635.125 203H632.881V195.727H635.224C635.93 195.727 636.534 195.873 637.036 196.164C637.537 196.453 637.922 196.868 638.19 197.411C638.457 197.95 638.591 198.597 638.591 199.349C638.591 200.107 638.456 200.759 638.186 201.306C637.916 201.851 637.523 202.27 637.007 202.563C636.491 202.854 635.864 203 635.125 203ZM633.761 202.219H635.068C635.67 202.219 636.168 202.103 636.563 201.871C636.959 201.639 637.253 201.308 637.447 200.88C637.642 200.451 637.739 199.941 637.739 199.349C637.739 198.762 637.643 198.257 637.451 197.833C637.259 197.407 636.973 197.08 636.592 196.853C636.21 196.623 635.736 196.509 635.168 196.509H633.761V202.219ZM642.241 203.114C641.716 203.114 641.263 202.998 640.881 202.766C640.503 202.531 640.21 202.205 640.004 201.786C639.801 201.364 639.699 200.874 639.699 200.315C639.699 199.757 639.801 199.264 640.004 198.838C640.21 198.41 640.497 198.076 640.864 197.837C641.233 197.595 641.664 197.474 642.156 197.474C642.44 197.474 642.721 197.522 642.998 197.616C643.275 197.711 643.527 197.865 643.754 198.078C643.982 198.289 644.163 198.568 644.298 198.916C644.433 199.264 644.5 199.693 644.5 200.202V200.557H640.295V199.832H643.648C643.648 199.525 643.586 199.25 643.463 199.009C643.342 198.767 643.17 198.576 642.945 198.437C642.722 198.297 642.459 198.227 642.156 198.227C641.822 198.227 641.534 198.31 641.29 198.476C641.048 198.639 640.862 198.852 640.732 199.115C640.602 199.378 640.537 199.66 640.537 199.96V200.443C640.537 200.855 640.608 201.204 640.75 201.491C640.894 201.775 641.094 201.991 641.35 202.141C641.606 202.287 641.903 202.361 642.241 202.361C642.462 202.361 642.661 202.33 642.838 202.268C643.018 202.205 643.173 202.11 643.303 201.984C643.433 201.857 643.534 201.698 643.605 201.509L644.415 201.736C644.33 202.01 644.186 202.252 643.985 202.46C643.784 202.666 643.535 202.827 643.239 202.943C642.943 203.057 642.611 203.114 642.241 203.114ZM649.638 198.767L648.886 198.98C648.838 198.855 648.768 198.733 648.676 198.614C648.586 198.494 648.463 198.394 648.307 198.316C648.151 198.238 647.951 198.199 647.707 198.199C647.373 198.199 647.095 198.276 646.872 198.43C646.652 198.581 646.542 198.774 646.542 199.009C646.542 199.217 646.618 199.381 646.769 199.502C646.921 199.623 647.157 199.723 647.479 199.804L648.289 200.003C648.777 200.121 649.14 200.302 649.379 200.546C649.618 200.788 649.738 201.099 649.738 201.48C649.738 201.793 649.648 202.072 649.468 202.318C649.29 202.564 649.042 202.759 648.722 202.901C648.403 203.043 648.031 203.114 647.607 203.114C647.051 203.114 646.59 202.993 646.226 202.751C645.861 202.51 645.63 202.157 645.533 201.693L646.329 201.494C646.405 201.788 646.548 202.008 646.759 202.155C646.972 202.302 647.25 202.375 647.593 202.375C647.984 202.375 648.294 202.292 648.523 202.126C648.755 201.958 648.871 201.757 648.871 201.523C648.871 201.333 648.805 201.175 648.673 201.047C648.54 200.917 648.336 200.82 648.062 200.756L647.153 200.543C646.653 200.424 646.286 200.241 646.052 199.992C645.82 199.741 645.704 199.428 645.704 199.051C645.704 198.743 645.79 198.471 645.963 198.234C646.138 197.998 646.376 197.812 646.677 197.677C646.98 197.542 647.323 197.474 647.707 197.474C648.246 197.474 648.67 197.593 648.978 197.83C649.288 198.066 649.508 198.379 649.638 198.767ZM653.215 203.114C652.704 203.114 652.264 202.993 651.894 202.751C651.525 202.51 651.241 202.177 651.042 201.754C650.843 201.33 650.744 200.846 650.744 200.301C650.744 199.747 650.846 199.258 651.049 198.835C651.255 198.408 651.542 198.076 651.909 197.837C652.278 197.595 652.709 197.474 653.201 197.474C653.585 197.474 653.93 197.545 654.238 197.688C654.546 197.83 654.798 198.028 654.994 198.284C655.191 198.54 655.313 198.838 655.36 199.179H654.522C654.458 198.93 654.316 198.71 654.096 198.518C653.878 198.324 653.585 198.227 653.215 198.227C652.889 198.227 652.602 198.312 652.356 198.483C652.112 198.651 651.922 198.889 651.784 199.197C651.649 199.502 651.582 199.861 651.582 200.273C651.582 200.694 651.648 201.061 651.781 201.374C651.916 201.686 652.105 201.929 652.349 202.102C652.595 202.274 652.884 202.361 653.215 202.361C653.433 202.361 653.631 202.323 653.808 202.247C653.986 202.171 654.136 202.062 654.259 201.92C654.383 201.778 654.47 201.608 654.522 201.409H655.36C655.313 201.731 655.196 202.021 655.009 202.279C654.824 202.535 654.579 202.738 654.274 202.89C653.971 203.039 653.618 203.114 653.215 203.114ZM656.585 203V197.545H657.395V198.369H657.452C657.551 198.099 657.731 197.88 657.992 197.712C658.252 197.544 658.546 197.46 658.872 197.46C658.934 197.46 659.011 197.461 659.103 197.464C659.195 197.466 659.265 197.47 659.313 197.474V198.327C659.284 198.32 659.219 198.309 659.117 198.295C659.018 198.278 658.913 198.27 658.801 198.27C658.536 198.27 658.299 198.326 658.091 198.437C657.885 198.546 657.722 198.697 657.601 198.891C657.483 199.083 657.423 199.302 657.423 199.548V203H656.585ZM660.306 203V197.545H661.144V203H660.306ZM660.732 196.636C660.569 196.636 660.428 196.581 660.31 196.469C660.194 196.358 660.136 196.224 660.136 196.068C660.136 195.912 660.194 195.778 660.31 195.667C660.428 195.556 660.569 195.5 660.732 195.5C660.896 195.5 661.035 195.556 661.151 195.667C661.27 195.778 661.329 195.912 661.329 196.068C661.329 196.224 661.27 196.358 661.151 196.469C661.035 196.581 660.896 196.636 660.732 196.636ZM662.679 205.045V197.545H663.489V198.412H663.588C663.65 198.317 663.735 198.196 663.844 198.05C663.955 197.901 664.114 197.768 664.32 197.652C664.528 197.534 664.81 197.474 665.165 197.474C665.624 197.474 666.029 197.589 666.379 197.819C666.73 198.049 667.003 198.374 667.2 198.795C667.396 199.217 667.494 199.714 667.494 200.287C667.494 200.865 667.396 201.365 667.2 201.789C667.003 202.21 666.731 202.537 666.383 202.769C666.035 202.999 665.634 203.114 665.179 203.114C664.829 203.114 664.548 203.056 664.338 202.94C664.127 202.821 663.965 202.687 663.851 202.538C663.737 202.387 663.65 202.261 663.588 202.162H663.517V205.045H662.679ZM663.503 200.273C663.503 200.685 663.563 201.048 663.684 201.363C663.805 201.675 663.981 201.92 664.213 202.098C664.445 202.273 664.729 202.361 665.066 202.361C665.416 202.361 665.708 202.268 665.943 202.084C666.179 201.897 666.357 201.646 666.475 201.331C666.596 201.014 666.656 200.661 666.656 200.273C666.656 199.889 666.597 199.544 666.479 199.236C666.363 198.926 666.186 198.681 665.95 198.501C665.715 198.318 665.421 198.227 665.066 198.227C664.725 198.227 664.438 198.314 664.206 198.487C663.974 198.657 663.799 198.896 663.681 199.204C663.562 199.509 663.503 199.866 663.503 200.273ZM671.145 197.545V198.256H668.318V197.545H671.145ZM669.142 196.239H669.98V201.438C669.98 201.674 670.015 201.852 670.083 201.97C670.154 202.086 670.244 202.164 670.353 202.205C670.464 202.242 670.582 202.261 670.705 202.261C670.797 202.261 670.873 202.257 670.932 202.247C670.991 202.235 671.039 202.226 671.074 202.219L671.244 202.972C671.188 202.993 671.108 203.014 671.007 203.036C670.905 203.059 670.776 203.071 670.619 203.071C670.383 203.071 670.151 203.02 669.923 202.918C669.699 202.817 669.512 202.661 669.362 202.453C669.216 202.245 669.142 201.982 669.142 201.665V196.239ZM672.406 203V197.545H673.244V203H672.406ZM672.832 196.636C672.669 196.636 672.528 196.581 672.409 196.469C672.293 196.358 672.235 196.224 672.235 196.068C672.235 195.912 672.293 195.778 672.409 195.667C672.528 195.556 672.669 195.5 672.832 195.5C672.995 195.5 673.135 195.556 673.251 195.667C673.369 195.778 673.428 195.912 673.428 196.068C673.428 196.224 673.369 196.358 673.251 196.469C673.135 196.581 672.995 196.636 672.832 196.636ZM676.995 203.114C676.502 203.114 676.07 202.996 675.699 202.762C675.329 202.528 675.04 202.2 674.832 201.778C674.626 201.357 674.523 200.865 674.523 200.301C674.523 199.733 674.626 199.237 674.832 198.813C675.04 198.389 675.329 198.06 675.699 197.826C676.07 197.592 676.502 197.474 676.995 197.474C677.487 197.474 677.918 197.592 678.287 197.826C678.659 198.06 678.948 198.389 679.154 198.813C679.362 199.237 679.466 199.733 679.466 200.301C679.466 200.865 679.362 201.357 679.154 201.778C678.948 202.2 678.659 202.528 678.287 202.762C677.918 202.996 677.487 203.114 676.995 203.114ZM676.995 202.361C677.369 202.361 677.676 202.265 677.918 202.073C678.159 201.881 678.338 201.629 678.454 201.317C678.57 201.004 678.628 200.666 678.628 200.301C678.628 199.937 678.57 199.597 678.454 199.282C678.338 198.967 678.159 198.713 677.918 198.518C677.676 198.324 677.369 198.227 676.995 198.227C676.621 198.227 676.313 198.324 676.071 198.518C675.83 198.713 675.651 198.967 675.535 199.282C675.419 199.597 675.361 199.937 675.361 200.301C675.361 200.666 675.419 201.004 675.535 201.317C675.651 201.629 675.83 201.881 676.071 202.073C676.313 202.265 676.621 202.361 676.995 202.361ZM681.584 199.719V203H680.746V197.545H681.555V198.398H681.626C681.754 198.121 681.948 197.898 682.209 197.73C682.469 197.56 682.805 197.474 683.217 197.474C683.586 197.474 683.91 197.55 684.187 197.702C684.464 197.851 684.679 198.078 684.833 198.384C684.987 198.687 685.064 199.07 685.064 199.534V203H684.226V199.591C684.226 199.162 684.114 198.829 683.892 198.589C683.669 198.348 683.364 198.227 682.976 198.227C682.708 198.227 682.469 198.285 682.258 198.401C682.05 198.517 681.885 198.687 681.765 198.909C681.644 199.132 681.584 199.402 681.584 199.719Z" fill="black"/>
<circle cx="98.5" cy="378.5" r="42.5" fill="#D9D9D9"/>
<path d="M75.125 381H72.8807V373.727H75.2244C75.9299 373.727 76.5336 373.873 77.0355 374.164C77.5374 374.453 77.9221 374.868 78.1896 375.411C78.4571 375.95 78.5909 376.597 78.5909 377.349C78.5909 378.107 78.456 378.759 78.1861 379.306C77.9162 379.851 77.5232 380.27 77.0071 380.563C76.491 380.854 75.8636 381 75.125 381ZM73.7614 380.219H75.0682C75.6695 380.219 76.1679 380.103 76.5632 379.871C76.9586 379.639 77.2533 379.308 77.4474 378.88C77.6416 378.451 77.7386 377.941 77.7386 377.349C77.7386 376.762 77.6428 376.257 77.451 375.833C77.2592 375.407 76.9728 375.08 76.5916 374.853C76.2105 374.623 75.7358 374.509 75.1676 374.509H73.7614V380.219ZM82.2415 381.114C81.7159 381.114 81.2625 380.998 80.8814 380.766C80.5026 380.531 80.2102 380.205 80.0043 379.786C79.8007 379.364 79.6989 378.874 79.6989 378.315C79.6989 377.757 79.8007 377.264 80.0043 376.838C80.2102 376.41 80.4967 376.076 80.8636 375.837C81.233 375.595 81.6638 375.474 82.1562 375.474C82.4403 375.474 82.7209 375.522 82.9979 375.616C83.2749 375.711 83.527 375.865 83.7543 376.078C83.9815 376.289 84.1626 376.568 84.2976 376.916C84.4325 377.264 84.5 377.693 84.5 378.202V378.557H80.2955V377.832H83.6477C83.6477 377.525 83.5862 377.25 83.4631 377.009C83.3423 376.767 83.1695 376.576 82.9446 376.437C82.7221 376.297 82.4593 376.227 82.1562 376.227C81.8224 376.227 81.5336 376.31 81.2898 376.476C81.0483 376.639 80.8625 376.852 80.7322 377.115C80.602 377.378 80.5369 377.66 80.5369 377.96V378.443C80.5369 378.855 80.608 379.204 80.75 379.491C80.8944 379.775 81.0945 379.991 81.3501 380.141C81.6058 380.287 81.9029 380.361 82.2415 380.361C82.4616 380.361 82.6605 380.33 82.8381 380.268C83.018 380.205 83.1731 380.11 83.3033 379.984C83.4335 379.857 83.5341 379.698 83.6051 379.509L84.4148 379.736C84.3295 380.01 84.1863 380.252 83.9851 380.46C83.7839 380.666 83.5353 380.827 83.2393 380.943C82.9434 381.057 82.6108 381.114 82.2415 381.114ZM89.6385 376.767L88.8857 376.98C88.8383 376.855 88.7685 376.733 88.6761 376.614C88.5862 376.494 88.4631 376.394 88.3068 376.316C88.1506 376.238 87.9505 376.199 87.7067 376.199C87.3729 376.199 87.0947 376.276 86.8722 376.43C86.652 376.581 86.5419 376.774 86.5419 377.009C86.5419 377.217 86.6177 377.381 86.7692 377.502C86.9207 377.623 87.1574 377.723 87.4794 377.804L88.2891 378.003C88.7768 378.121 89.1402 378.302 89.3793 378.546C89.6184 378.788 89.7379 379.099 89.7379 379.48C89.7379 379.793 89.648 380.072 89.468 380.318C89.2905 380.564 89.0419 380.759 88.7223 380.901C88.4027 381.043 88.031 381.114 87.6072 381.114C87.0509 381.114 86.5904 380.993 86.2259 380.751C85.8613 380.51 85.6304 380.157 85.5334 379.693L86.3288 379.494C86.4046 379.788 86.5478 380.008 86.7585 380.155C86.9716 380.302 87.2498 380.375 87.593 380.375C87.9837 380.375 88.2938 380.292 88.5234 380.126C88.7554 379.958 88.8714 379.757 88.8714 379.523C88.8714 379.333 88.8052 379.175 88.6726 379.047C88.54 378.917 88.3364 378.82 88.0618 378.756L87.1527 378.543C86.6532 378.424 86.2862 378.241 86.0518 377.992C85.8198 377.741 85.7038 377.428 85.7038 377.051C85.7038 376.743 85.7902 376.471 85.9631 376.234C86.1383 375.998 86.3762 375.812 86.6768 375.677C86.9799 375.542 87.3232 375.474 87.7067 375.474C88.2464 375.474 88.6702 375.593 88.978 375.83C89.2881 376.066 89.5083 376.379 89.6385 376.767ZM93.2154 381.114C92.704 381.114 92.2637 380.993 91.8944 380.751C91.525 380.51 91.2409 380.177 91.0421 379.754C90.8432 379.33 90.7438 378.846 90.7438 378.301C90.7438 377.747 90.8456 377.258 91.0492 376.835C91.2551 376.408 91.5416 376.076 91.9086 375.837C92.2779 375.595 92.7087 375.474 93.2012 375.474C93.5847 375.474 93.9303 375.545 94.2381 375.688C94.5459 375.83 94.798 376.028 94.9945 376.284C95.191 376.54 95.3129 376.838 95.3603 377.179H94.5222C94.4583 376.93 94.3162 376.71 94.0961 376.518C93.8783 376.324 93.5847 376.227 93.2154 376.227C92.8887 376.227 92.6022 376.312 92.356 376.483C92.1122 376.651 91.9216 376.889 91.7843 377.197C91.6493 377.502 91.5819 377.861 91.5819 378.273C91.5819 378.694 91.6481 379.061 91.7807 379.374C91.9157 379.686 92.1051 379.929 92.3489 380.102C92.5951 380.274 92.8839 380.361 93.2154 380.361C93.4332 380.361 93.6309 380.323 93.8084 380.247C93.986 380.171 94.1363 380.062 94.2594 379.92C94.3825 379.778 94.4701 379.608 94.5222 379.409H95.3603C95.3129 379.731 95.1957 380.021 95.0087 380.279C94.824 380.535 94.579 380.738 94.2736 380.89C93.9706 381.039 93.6178 381.114 93.2154 381.114ZM96.5854 381V375.545H97.3951V376.369H97.4519C97.5513 376.099 97.7312 375.88 97.9917 375.712C98.2521 375.544 98.5456 375.46 98.8723 375.46C98.9339 375.46 99.0108 375.461 99.1032 375.464C99.1955 375.466 99.2653 375.47 99.3127 375.474V376.327C99.2843 376.32 99.2192 376.309 99.1174 376.295C99.0179 376.278 98.9126 376.27 98.8013 376.27C98.5362 376.27 98.2994 376.326 98.0911 376.437C97.8851 376.546 97.7218 376.697 97.601 376.891C97.4827 377.083 97.4235 377.302 97.4235 377.548V381H96.5854ZM100.306 381V375.545H101.144V381H100.306ZM100.732 374.636C100.569 374.636 100.428 374.581 100.31 374.469C100.194 374.358 100.136 374.224 100.136 374.068C100.136 373.912 100.194 373.778 100.31 373.667C100.428 373.556 100.569 373.5 100.732 373.5C100.896 373.5 101.035 373.556 101.151 373.667C101.27 373.778 101.329 373.912 101.329 374.068C101.329 374.224 101.27 374.358 101.151 374.469C101.035 374.581 100.896 374.636 100.732 374.636ZM102.679 383.045V375.545H103.489V376.412H103.588C103.65 376.317 103.735 376.196 103.844 376.05C103.955 375.901 104.114 375.768 104.32 375.652C104.528 375.534 104.81 375.474 105.165 375.474C105.624 375.474 106.029 375.589 106.379 375.819C106.73 376.049 107.003 376.374 107.2 376.795C107.396 377.217 107.494 377.714 107.494 378.287C107.494 378.865 107.396 379.365 107.2 379.789C107.003 380.21 106.731 380.537 106.383 380.769C106.035 380.999 105.634 381.114 105.179 381.114C104.829 381.114 104.548 381.056 104.338 380.94C104.127 380.821 103.965 380.687 103.851 380.538C103.737 380.387 103.65 380.261 103.588 380.162H103.517V383.045H102.679ZM103.503 378.273C103.503 378.685 103.563 379.048 103.684 379.363C103.805 379.675 103.981 379.92 104.213 380.098C104.445 380.273 104.729 380.361 105.066 380.361C105.416 380.361 105.708 380.268 105.943 380.084C106.179 379.897 106.357 379.646 106.475 379.331C106.596 379.014 106.656 378.661 106.656 378.273C106.656 377.889 106.597 377.544 106.479 377.236C106.363 376.926 106.186 376.681 105.95 376.501C105.715 376.318 105.421 376.227 105.066 376.227C104.725 376.227 104.438 376.314 104.206 376.487C103.974 376.657 103.799 376.896 103.681 377.204C103.562 377.509 103.503 377.866 103.503 378.273ZM111.145 375.545V376.256H108.318V375.545H111.145ZM109.142 374.239H109.98V379.438C109.98 379.674 110.015 379.852 110.083 379.97C110.154 380.086 110.244 380.164 110.353 380.205C110.464 380.242 110.582 380.261 110.705 380.261C110.797 380.261 110.873 380.257 110.932 380.247C110.991 380.235 111.039 380.226 111.074 380.219L111.244 380.972C111.188 380.993 111.108 381.014 111.007 381.036C110.905 381.059 110.776 381.071 110.619 381.071C110.383 381.071 110.151 381.02 109.923 380.918C109.699 380.817 109.512 380.661 109.362 380.453C109.216 380.245 109.142 379.982 109.142 379.665V374.239ZM112.406 381V375.545H113.244V381H112.406ZM112.832 374.636C112.669 374.636 112.528 374.581 112.409 374.469C112.293 374.358 112.235 374.224 112.235 374.068C112.235 373.912 112.293 373.778 112.409 373.667C112.528 373.556 112.669 373.5 112.832 373.5C112.995 373.5 113.135 373.556 113.251 373.667C113.369 373.778 113.428 373.912 113.428 374.068C113.428 374.224 113.369 374.358 113.251 374.469C113.135 374.581 112.995 374.636 112.832 374.636ZM116.995 381.114C116.502 381.114 116.07 380.996 115.699 380.762C115.329 380.528 115.04 380.2 114.832 379.778C114.626 379.357 114.523 378.865 114.523 378.301C114.523 377.733 114.626 377.237 114.832 376.813C115.04 376.389 115.329 376.06 115.699 375.826C116.07 375.592 116.502 375.474 116.995 375.474C117.487 375.474 117.918 375.592 118.287 375.826C118.659 376.06 118.948 376.389 119.154 376.813C119.362 377.237 119.466 377.733 119.466 378.301C119.466 378.865 119.362 379.357 119.154 379.778C118.948 380.2 118.659 380.528 118.287 380.762C117.918 380.996 117.487 381.114 116.995 381.114ZM116.995 380.361C117.369 380.361 117.676 380.265 117.918 380.073C118.159 379.881 118.338 379.629 118.454 379.317C118.57 379.004 118.628 378.666 118.628 378.301C118.628 377.937 118.57 377.597 118.454 377.282C118.338 376.967 118.159 376.713 117.918 376.518C117.676 376.324 117.369 376.227 116.995 376.227C116.621 376.227 116.313 376.324 116.071 376.518C115.83 376.713 115.651 376.967 115.535 377.282C115.419 377.597 115.361 377.937 115.361 378.301C115.361 378.666 115.419 379.004 115.535 379.317C115.651 379.629 115.83 379.881 116.071 380.073C116.313 380.265 116.621 380.361 116.995 380.361ZM121.584 377.719V381H120.746V375.545H121.555V376.398H121.626C121.754 376.121 121.948 375.898 122.209 375.73C122.469 375.56 122.805 375.474 123.217 375.474C123.586 375.474 123.91 375.55 124.187 375.702C124.464 375.851 124.679 376.078 124.833 376.384C124.987 376.687 125.064 377.07 125.064 377.534V381H124.226V377.591C124.226 377.162 124.114 376.829 123.892 376.589C123.669 376.348 123.364 376.227 122.976 376.227C122.708 376.227 122.469 376.285 122.258 376.401C122.05 376.517 121.885 376.687 121.765 376.909C121.644 377.132 121.584 377.402 121.584 377.719Z" fill="black"/>
<circle cx="241.5" cy="378.5" r="42.5" fill="#D9D9D9"/>
<path d="M223.125 381H220.881V373.727H223.224C223.93 373.727 224.534 373.873 225.036 374.164C225.537 374.453 225.922 374.868 226.19 375.411C226.457 375.95 226.591 376.597 226.591 377.349C226.591 378.107 226.456 378.759 226.186 379.306C225.916 379.851 225.523 380.27 225.007 380.563C224.491 380.854 223.864 381 223.125 381ZM221.761 380.219H223.068C223.67 380.219 224.168 380.103 224.563 379.871C224.959 379.639 225.253 379.308 225.447 378.88C225.642 378.451 225.739 377.941 225.739 377.349C225.739 376.762 225.643 376.257 225.451 375.833C225.259 375.407 224.973 375.08 224.592 374.853C224.21 374.623 223.736 374.509 223.168 374.509H221.761V380.219ZM230.241 381.114C229.716 381.114 229.263 380.998 228.881 380.766C228.503 380.531 228.21 380.205 228.004 379.786C227.801 379.364 227.699 378.874 227.699 378.315C227.699 377.757 227.801 377.264 228.004 376.838C228.21 376.41 228.497 376.076 228.864 375.837C229.233 375.595 229.664 375.474 230.156 375.474C230.44 375.474 230.721 375.522 230.998 375.616C231.275 375.711 231.527 375.865 231.754 376.078C231.982 376.289 232.163 376.568 232.298 376.916C232.433 377.264 232.5 377.693 232.5 378.202V378.557H228.295V377.832H231.648C231.648 377.525 231.586 377.25 231.463 377.009C231.342 376.767 231.17 376.576 230.945 376.437C230.722 376.297 230.459 376.227 230.156 376.227C229.822 376.227 229.534 376.31 229.29 376.476C229.048 376.639 228.862 376.852 228.732 377.115C228.602 377.378 228.537 377.66 228.537 377.96V378.443C228.537 378.855 228.608 379.204 228.75 379.491C228.894 379.775 229.094 379.991 229.35 380.141C229.606 380.287 229.903 380.361 230.241 380.361C230.462 380.361 230.661 380.33 230.838 380.268C231.018 380.205 231.173 380.11 231.303 379.984C231.433 379.857 231.534 379.698 231.605 379.509L232.415 379.736C232.33 380.01 232.186 380.252 231.985 380.46C231.784 380.666 231.535 380.827 231.239 380.943C230.943 381.057 230.611 381.114 230.241 381.114ZM237.638 376.767L236.886 376.98C236.838 376.855 236.768 376.733 236.676 376.614C236.586 376.494 236.463 376.394 236.307 376.316C236.151 376.238 235.951 376.199 235.707 376.199C235.373 376.199 235.095 376.276 234.872 376.43C234.652 376.581 234.542 376.774 234.542 377.009C234.542 377.217 234.618 377.381 234.769 377.502C234.921 377.623 235.157 377.723 235.479 377.804L236.289 378.003C236.777 378.121 237.14 378.302 237.379 378.546C237.618 378.788 237.738 379.099 237.738 379.48C237.738 379.793 237.648 380.072 237.468 380.318C237.29 380.564 237.042 380.759 236.722 380.901C236.403 381.043 236.031 381.114 235.607 381.114C235.051 381.114 234.59 380.993 234.226 380.751C233.861 380.51 233.63 380.157 233.533 379.693L234.329 379.494C234.405 379.788 234.548 380.008 234.759 380.155C234.972 380.302 235.25 380.375 235.593 380.375C235.984 380.375 236.294 380.292 236.523 380.126C236.755 379.958 236.871 379.757 236.871 379.523C236.871 379.333 236.805 379.175 236.673 379.047C236.54 378.917 236.336 378.82 236.062 378.756L235.153 378.543C234.653 378.424 234.286 378.241 234.052 377.992C233.82 377.741 233.704 377.428 233.704 377.051C233.704 376.743 233.79 376.471 233.963 376.234C234.138 375.998 234.376 375.812 234.677 375.677C234.98 375.542 235.323 375.474 235.707 375.474C236.246 375.474 236.67 375.593 236.978 375.83C237.288 376.066 237.508 376.379 237.638 376.767ZM241.215 381.114C240.704 381.114 240.264 380.993 239.894 380.751C239.525 380.51 239.241 380.177 239.042 379.754C238.843 379.33 238.744 378.846 238.744 378.301C238.744 377.747 238.846 377.258 239.049 376.835C239.255 376.408 239.542 376.076 239.909 375.837C240.278 375.595 240.709 375.474 241.201 375.474C241.585 375.474 241.93 375.545 242.238 375.688C242.546 375.83 242.798 376.028 242.994 376.284C243.191 376.54 243.313 376.838 243.36 377.179H242.522C242.458 376.93 242.316 376.71 242.096 376.518C241.878 376.324 241.585 376.227 241.215 376.227C240.889 376.227 240.602 376.312 240.356 376.483C240.112 376.651 239.922 376.889 239.784 377.197C239.649 377.502 239.582 377.861 239.582 378.273C239.582 378.694 239.648 379.061 239.781 379.374C239.916 379.686 240.105 379.929 240.349 380.102C240.595 380.274 240.884 380.361 241.215 380.361C241.433 380.361 241.631 380.323 241.808 380.247C241.986 380.171 242.136 380.062 242.259 379.92C242.383 379.778 242.47 379.608 242.522 379.409H243.36C243.313 379.731 243.196 380.021 243.009 380.279C242.824 380.535 242.579 380.738 242.274 380.89C241.971 381.039 241.618 381.114 241.215 381.114ZM244.585 381V375.545H245.395V376.369H245.452C245.551 376.099 245.731 375.88 245.992 375.712C246.252 375.544 246.546 375.46 246.872 375.46C246.934 375.46 247.011 375.461 247.103 375.464C247.195 375.466 247.265 375.47 247.313 375.474V376.327C247.284 376.32 247.219 376.309 247.117 376.295C247.018 376.278 246.913 376.27 246.801 376.27C246.536 376.27 246.299 376.326 246.091 376.437C245.885 376.546 245.722 376.697 245.601 376.891C245.483 377.083 245.423 377.302 245.423 377.548V381H244.585ZM248.306 381V375.545H249.144V381H248.306ZM248.732 374.636C248.569 374.636 248.428 374.581 248.31 374.469C248.194 374.358 248.136 374.224 248.136 374.068C248.136 373.912 248.194 373.778 248.31 373.667C248.428 373.556 248.569 373.5 248.732 373.5C248.896 373.5 249.035 373.556 249.151 373.667C249.27 373.778 249.329 373.912 249.329 374.068C249.329 374.224 249.27 374.358 249.151 374.469C249.035 374.581 248.896 374.636 248.732 374.636ZM250.679 383.045V375.545H251.489V376.412H251.588C251.65 376.317 251.735 376.196 251.844 376.05C251.955 375.901 252.114 375.768 252.32 375.652C252.528 375.534 252.81 375.474 253.165 375.474C253.624 375.474 254.029 375.589 254.379 375.819C254.73 376.049 255.003 376.374 255.2 376.795C255.396 377.217 255.494 377.714 255.494 378.287C255.494 378.865 255.396 379.365 255.2 379.789C255.003 380.21 254.731 380.537 254.383 380.769C254.035 380.999 253.634 381.114 253.179 381.114C252.829 381.114 252.548 381.056 252.338 380.94C252.127 380.821 251.965 380.687 251.851 380.538C251.737 380.387 251.65 380.261 251.588 380.162H251.517V383.045H250.679ZM251.503 378.273C251.503 378.685 251.563 379.048 251.684 379.363C251.805 379.675 251.981 379.92 252.213 380.098C252.445 380.273 252.729 380.361 253.066 380.361C253.416 380.361 253.708 380.268 253.943 380.084C254.179 379.897 254.357 379.646 254.475 379.331C254.596 379.014 254.656 378.661 254.656 378.273C254.656 377.889 254.597 377.544 254.479 377.236C254.363 376.926 254.186 376.681 253.95 376.501C253.715 376.318 253.421 376.227 253.066 376.227C252.725 376.227 252.438 376.314 252.206 376.487C251.974 376.657 251.799 376.896 251.681 377.204C251.562 377.509 251.503 377.866 251.503 378.273ZM259.145 375.545V376.256H256.318V375.545H259.145ZM257.142 374.239H257.98V379.438C257.98 379.674 258.015 379.852 258.083 379.97C258.154 380.086 258.244 380.164 258.353 380.205C258.464 380.242 258.582 380.261 258.705 380.261C258.797 380.261 258.873 380.257 258.932 380.247C258.991 380.235 259.039 380.226 259.074 380.219L259.244 380.972C259.188 380.993 259.108 381.014 259.007 381.036C258.905 381.059 258.776 381.071 258.619 381.071C258.383 381.071 258.151 381.02 257.923 380.918C257.699 380.817 257.512 380.661 257.362 380.453C257.216 380.245 257.142 379.982 257.142 379.665V374.239ZM260.406 381V375.545H261.244V381H260.406ZM260.832 374.636C260.669 374.636 260.528 374.581 260.409 374.469C260.293 374.358 260.235 374.224 260.235 374.068C260.235 373.912 260.293 373.778 260.409 373.667C260.528 373.556 260.669 373.5 260.832 373.5C260.995 373.5 261.135 373.556 261.251 373.667C261.369 373.778 261.428 373.912 261.428 374.068C261.428 374.224 261.369 374.358 261.251 374.469C261.135 374.581 260.995 374.636 260.832 374.636ZM264.995 381.114C264.502 381.114 264.07 380.996 263.699 380.762C263.329 380.528 263.04 380.2 262.832 379.778C262.626 379.357 262.523 378.865 262.523 378.301C262.523 377.733 262.626 377.237 262.832 376.813C263.04 376.389 263.329 376.06 263.699 375.826C264.07 375.592 264.502 375.474 264.995 375.474C265.487 375.474 265.918 375.592 266.287 375.826C266.659 376.06 266.948 376.389 267.154 376.813C267.362 377.237 267.466 377.733 267.466 378.301C267.466 378.865 267.362 379.357 267.154 379.778C266.948 380.2 266.659 380.528 266.287 380.762C265.918 380.996 265.487 381.114 264.995 381.114ZM264.995 380.361C265.369 380.361 265.676 380.265 265.918 380.073C266.159 379.881 266.338 379.629 266.454 379.317C266.57 379.004 266.628 378.666 266.628 378.301C266.628 377.937 266.57 377.597 266.454 377.282C266.338 376.967 266.159 376.713 265.918 376.518C265.676 376.324 265.369 376.227 264.995 376.227C264.621 376.227 264.313 376.324 264.071 376.518C263.83 376.713 263.651 376.967 263.535 377.282C263.419 377.597 263.361 377.937 263.361 378.301C263.361 378.666 263.419 379.004 263.535 379.317C263.651 379.629 263.83 379.881 264.071 380.073C264.313 380.265 264.621 380.361 264.995 380.361ZM269.584 377.719V381H268.746V375.545H269.555V376.398H269.626C269.754 376.121 269.948 375.898 270.209 375.73C270.469 375.56 270.805 375.474 271.217 375.474C271.586 375.474 271.91 375.55 272.187 375.702C272.464 375.851 272.679 376.078 272.833 376.384C272.987 376.687 273.064 377.07 273.064 377.534V381H272.226V377.591C272.226 377.162 272.114 376.829 271.892 376.589C271.669 376.348 271.364 376.227 270.976 376.227C270.708 376.227 270.469 376.285 270.258 376.401C270.05 376.517 269.885 376.687 269.765 376.909C269.644 377.132 269.584 377.402 269.584 377.719Z" fill="black"/>
<path d="M96.9393 331.061C97.5251 331.646 98.4749 331.646 99.0607 331.061L108.607 321.515C109.192 320.929 109.192 319.979 108.607 319.393C108.021 318.808 107.071 318.808 106.485 319.393L98 327.879L89.5147 319.393C88.9289 318.808 87.9792 318.808 87.3934 319.393C86.8076 319.979 86.8076 320.929 87.3934 321.515L96.9393 331.061ZM96.5 243V330H99.5V243H96.5Z" fill="black"/>
<path d="M239.939 331.061C240.525 331.646 241.475 331.646 242.061 331.061L251.607 321.515C252.192 320.929 252.192 319.979 251.607 319.393C251.021 318.808 250.071 318.808 249.485 319.393L241 327.879L232.515 319.393C231.929 318.808 230.979 318.808 230.393 319.393C229.808 319.979 229.808 320.929 230.393 321.515L239.939 331.061ZM239.5 243V330H242.5V243H239.5Z" fill="black"/>
<line x1="97.9775" y1="115.5" x2="653.978" y2="110.5" stroke="black" stroke-width="5"/>
<path d="M96.9393 152.061C97.5251 152.646 98.4749 152.646 99.0607 152.061L108.607 142.515C109.192 141.929 109.192 140.979 108.607 140.393C108.021 139.808 107.071 139.808 106.485 140.393L98 148.879L89.5147 140.393C88.9289 139.808 87.9792 139.808 87.3934 140.393C86.8076 140.979 86.8076 141.929 87.3934 142.515L96.9393 152.061ZM96.5 113V151H99.5V113H96.5Z" fill="black"/>
<path d="M239.939 152.061C240.525 152.646 241.475 152.646 242.061 152.061L251.607 142.515C252.192 141.929 252.192 140.979 251.607 140.393C251.021 139.808 250.071 139.808 249.485 140.393L241 148.879L232.515 140.393C231.929 139.808 230.979 139.808 230.393 140.393C229.808 140.979 229.808 141.929 230.393 142.515L239.939 152.061ZM239.5 115V151H242.5V115H239.5Z" fill="black"/>
<path d="M374.939 150.061C375.525 150.646 376.475 150.646 377.061 150.061L386.607 140.515C387.192 139.929 387.192 138.979 386.607 138.393C386.021 137.808 385.071 137.808 384.485 138.393L376 146.879L367.515 138.393C366.929 137.808 365.979 137.808 365.393 138.393C364.808 138.979 364.808 139.929 365.393 140.515L374.939 150.061ZM374.5 113V149H377.5V113H374.5Z" fill="black"/>
<path d="M514.939 152.061C515.525 152.646 516.475 152.646 517.061 152.061L526.607 142.515C527.192 141.929 527.192 140.979 526.607 140.393C526.021 139.808 525.071 139.808 524.485 140.393L516 148.879L507.515 140.393C506.929 139.808 505.979 139.808 505.393 140.393C504.808 140.979 504.808 141.929 505.393 142.515L514.939 152.061ZM514.5 115V151H517.5V115H514.5Z" fill="black"/>
<path d="M652.939 150.061C653.525 150.646 654.475 150.646 655.061 150.061L664.607 140.515C665.192 139.929 665.192 138.979 664.607 138.393C664.021 137.808 663.071 137.808 662.485 138.393L654 146.879L645.515 138.393C644.929 137.808 643.979 137.808 643.393 138.393C642.808 138.979 642.808 139.929 643.393 140.515L652.939 150.061ZM652.5 108V149H655.5V108H652.5Z" fill="black"/>
<path d="M139.939 199.939C139.354 200.525 139.354 201.475 139.939 202.061L149.485 211.607C150.071 212.192 151.021 212.192 151.607 211.607C152.192 211.021 152.192 210.071 151.607 209.485L143.121 201L151.607 192.515C152.192 191.929 152.192 190.979 151.607 190.393C151.021 189.808 150.071 189.808 149.485 190.393L139.939 199.939ZM141 202.5H166.128V199.5H141V202.5Z" fill="black"/>
<path d="M191.061 202.061C191.646 201.475 191.646 200.525 191.061 199.939L181.515 190.393C180.929 189.808 179.979 189.808 179.393 190.393C178.808 190.979 178.808 191.929 179.393 192.515L187.879 201L179.393 209.485C178.808 210.071 178.808 211.021 179.393 211.607C179.979 212.192 180.929 212.192 181.515 211.607L191.061 202.061ZM164.872 202.5H190V199.5H164.872V202.5Z" fill="black"/>
<path d="M282.939 199.939C282.354 200.525 282.354 201.475 282.939 202.061L292.485 211.607C293.071 212.192 294.021 212.192 294.607 211.607C295.192 211.021 295.192 210.071 294.607 209.485L286.121 201L294.607 192.515C295.192 191.929 295.192 190.979 294.607 190.393C294.021 189.808 293.071 189.808 292.485 190.393L282.939 199.939ZM284 202.5H309.128V199.5H284V202.5Z" fill="black"/>
<path d="M334.061 202.061C334.646 201.475 334.646 200.525 334.061 199.939L324.515 190.393C323.929 189.808 322.979 189.808 322.393 190.393C321.808 190.979 321.808 191.929 322.393 192.515L330.879 201L322.393 209.485C321.808 210.071 321.808 211.021 322.393 211.607C322.979 212.192 323.929 212.192 324.515 211.607L334.061 202.061ZM307.872 202.5H333V199.5H307.872V202.5Z" fill="black"/>
<path d="M422.939 199.939C422.354 200.525 422.354 201.475 422.939 202.061L432.485 211.607C433.071 212.192 434.021 212.192 434.607 211.607C435.192 211.021 435.192 210.071 434.607 209.485L426.121 201L434.607 192.515C435.192 191.929 435.192 190.979 434.607 190.393C434.021 189.808 433.071 189.808 432.485 190.393L422.939 199.939ZM424 202.5H449.128V199.5H424V202.5Z" fill="black"/>
<path d="M474.061 202.061C474.646 201.475 474.646 200.525 474.061 199.939L464.515 190.393C463.929 189.808 462.979 189.808 462.393 190.393C461.808 190.979 461.808 191.929 462.393 192.515L470.879 201L462.393 209.485C461.808 210.071 461.808 211.021 462.393 211.607C462.979 212.192 463.929 212.192 464.515 211.607L474.061 202.061ZM447.872 202.5H473V199.5H447.872V202.5Z" fill="black"/>
<path d="M560.939 199.939C560.354 200.525 560.354 201.475 560.939 202.061L570.485 211.607C571.071 212.192 572.021 212.192 572.607 211.607C573.192 211.021 573.192 210.071 572.607 209.485L564.121 201L572.607 192.515C573.192 191.929 573.192 190.979 572.607 190.393C572.021 189.808 571.071 189.808 570.485 190.393L560.939 199.939ZM562 202.5H587.128V199.5H562V202.5Z" fill="black"/>
<path d="M612.061 202.061C612.646 201.475 612.646 200.525 612.061 199.939L602.515 190.393C601.929 189.808 600.979 189.808 600.393 190.393C599.808 190.979 599.808 191.929 600.393 192.515L608.879 201L600.393 209.485C599.808 210.071 599.808 211.021 600.393 211.607C600.979 212.192 601.929 212.192 602.515 211.607L612.061 202.061ZM585.872 202.5H611V199.5H585.872V202.5Z" fill="black"/>
</svg>
